G04*
G04 #@! TF.GenerationSoftware,Altium Limited,Altium Designer,24.3.1 (35)*
G04*
G04 Layer_Physical_Order=2*
G04 Layer_Color=16711680*
%FSLAX44Y44*%
%MOMM*%
G71*
G04*
G04 #@! TF.SameCoordinates,966F9650-789C-4326-8A17-0312BC099CA3*
G04*
G04*
G04 #@! TF.FilePolarity,Positive*
G04*
G01*
G75*
%ADD10C,1.9050*%
%ADD11C,1.5240*%
%ADD12C,1.2700*%
%ADD13C,2.9210*%
%ADD14C,1.3970*%
%ADD15C,1.0160*%
%ADD16R,1.5000X1.5000*%
%ADD17C,1.5000*%
%ADD18R,2.4000X3.0000*%
%ADD19O,2.4000X3.0000*%
%ADD20C,2.0000*%
%ADD21C,1.5240*%
%ADD22R,1.5000X1.5000*%
%ADD23O,1.6000X1.4000*%
%ADD24R,1.5600X1.5600*%
%ADD25C,1.5600*%
%ADD26O,1.6000X1.2000*%
%ADD27O,1.8000X1.0000*%
%ADD28O,3.0000X2.4000*%
%ADD29R,3.0000X2.4000*%
%ADD30C,1.7000*%
%ADD31C,4.0000*%
%ADD32O,6.0000X2.0000*%
%ADD33O,1.2000X1.6000*%
%ADD34C,1.9000*%
%ADD35O,2.0000X4.5000*%
%ADD36O,2.0000X4.0000*%
%ADD37O,4.0000X2.0000*%
%ADD38C,1.5000*%
G36*
X622300Y2477770D02*
X604520Y2459990D01*
X333362Y2472041D01*
X327660Y2466340D01*
X322580Y2471420D01*
X320294D01*
X293173Y2445453D01*
X293370Y2444750D01*
X284383Y2435763D01*
X283210Y2436249D01*
Y2474427D01*
X283644Y2474776D01*
X284480Y2474509D01*
Y2476500D01*
X300385Y2492406D01*
D01*
X302260Y2494280D01*
X622300D01*
Y2477770D01*
D02*
G37*
G36*
X1164590Y2466340D02*
X1144270Y2446020D01*
X1108710D01*
Y2445574D01*
X1107375Y2445216D01*
X1105085Y2443894D01*
X1104671Y2443480D01*
X1000760D01*
X980186Y2466340D01*
X980752Y2467610D01*
X1164590D01*
Y2466340D01*
D02*
G37*
G36*
X1413510Y2481580D02*
X1431290D01*
X1436370Y2476500D01*
X1427480Y2467610D01*
Y2428240D01*
X1412240Y2413000D01*
X1364986Y2434002D01*
X1365130Y2434538D01*
Y2434590D01*
X1355090D01*
Y2437130D01*
X1365130D01*
Y2437182D01*
X1364446Y2439735D01*
X1363124Y2442025D01*
X1361711Y2443438D01*
X1361440Y2444750D01*
Y2486660D01*
X1408430D01*
X1413510Y2481580D01*
D02*
G37*
G36*
X972917Y2431953D02*
X972431Y2430780D01*
X996950D01*
X1022215Y2405515D01*
Y2374900D01*
X1016000D01*
X988933Y2347833D01*
X987701Y2348141D01*
X980355Y2372275D01*
X975813Y2367733D01*
X1002928Y2215695D01*
X1002592Y2215520D01*
X1003300Y2213610D01*
X966470Y2176780D01*
X882650D01*
X840740Y2218690D01*
Y2362200D01*
X863600Y2385060D01*
X939800D01*
X942340Y2387600D01*
X953770D01*
X967740Y2401570D01*
Y2405795D01*
Y2411095D01*
X968354Y2411709D01*
X967961Y2413000D01*
X967740D01*
X957072Y2430780D01*
X787400D01*
X778510Y2439670D01*
Y2452370D01*
X949960D01*
X951230Y2453640D01*
X972917Y2431953D01*
D02*
G37*
G36*
X323850Y2351470D02*
X337120D01*
X365200Y2323390D01*
Y2294678D01*
X361926Y2294247D01*
X358876Y2292984D01*
X356256Y2290974D01*
X354246Y2288354D01*
X352983Y2285304D01*
X352552Y2282030D01*
Y2273300D01*
X365200D01*
Y2272030D01*
X366470D01*
Y2249549D01*
X368474Y2249813D01*
X369657Y2250303D01*
X371524Y2251076D01*
X374144Y2253086D01*
X376154Y2255706D01*
X376545Y2256651D01*
D01*
X376859Y2257410D01*
X378105Y2257657D01*
X394950Y2240813D01*
Y2239740D01*
X395742Y2238948D01*
X395216Y2237678D01*
X386200D01*
X382926Y2237247D01*
X379876Y2235984D01*
X377256Y2233974D01*
X375246Y2231354D01*
X373983Y2228304D01*
X373719Y2226300D01*
X396200D01*
Y2223760D01*
X373719D01*
X373826Y2222946D01*
D01*
X373983Y2221756D01*
X375246Y2218706D01*
X377256Y2216086D01*
X379876Y2214076D01*
X382926Y2212813D01*
X384646Y2212586D01*
X385054Y2211384D01*
X340290Y2166620D01*
X327540D01*
Y2167942D01*
X326856Y2170495D01*
X325534Y2172785D01*
X324599Y2173719D01*
X323665Y2174654D01*
X321375Y2175976D01*
X318822Y2176660D01*
X317500D01*
Y2258728D01*
X318508Y2259501D01*
X318549Y2259490D01*
X321851D01*
X325040Y2260345D01*
X327900Y2261996D01*
X330234Y2264330D01*
X331885Y2267190D01*
X332740Y2270379D01*
Y2273681D01*
X331885Y2276870D01*
X330234Y2279730D01*
X327900Y2282065D01*
X325040Y2283715D01*
X321851Y2284570D01*
X318549D01*
X318508Y2284559D01*
X317500Y2285332D01*
Y2351470D01*
X321310D01*
Y2366010D01*
X323850D01*
Y2351470D01*
D02*
G37*
G36*
X1512095Y2292374D02*
X1478224Y2278380D01*
X1496339D01*
X1497045Y2277324D01*
X1496936Y2277060D01*
X1496775Y2275840D01*
X1507230D01*
X1517685D01*
X1517524Y2277060D01*
X1517415Y2277324D01*
X1518121Y2278380D01*
X1521460D01*
Y2245360D01*
X1508760Y2232660D01*
X1405223D01*
X1404596Y2233930D01*
X1405190Y2234703D01*
X1406050Y2236781D01*
X1406176Y2237740D01*
X1395730D01*
X1385284D01*
X1385410Y2236781D01*
Y2236781D01*
X1386270Y2234703D01*
X1386864Y2233930D01*
X1386237Y2232660D01*
X1373917D01*
X1269629Y2202301D01*
X1269156Y2203443D01*
X1267948Y2205018D01*
X1267535Y2205334D01*
X1267452Y2206602D01*
X1299860Y2239010D01*
X1370647D01*
X1370761Y2241280D01*
X1353196Y2242877D01*
X1303601Y2239147D01*
X1303071Y2240301D01*
X1309420Y2246650D01*
X1358812D01*
X1405781Y2293620D01*
X1511848D01*
X1512095Y2292374D01*
D02*
G37*
G36*
X1400730Y2224310D02*
X1390730D01*
X1395730Y2229310D01*
X1400730Y2224310D01*
D02*
G37*
G36*
X1554773Y2218762D02*
X1552413Y2212023D01*
X1555750Y2211070D01*
Y2057400D01*
X1522633Y2024283D01*
X1520190Y2021840D01*
X1446530D01*
X1445260Y2023110D01*
X1461112Y2038962D01*
X1464070Y2039755D01*
X1466930Y2041405D01*
X1469265Y2043740D01*
X1470915Y2046600D01*
X1471708Y2049558D01*
X1519017Y2096867D01*
X1520190Y2096381D01*
Y2077720D01*
X1521460Y2078990D01*
Y2123639D01*
X1508482Y2086582D01*
X1507230Y2086794D01*
Y2163348D01*
X1508230D01*
X1510720Y2163676D01*
X1513041Y2164637D01*
X1515034Y2166166D01*
X1516563Y2168159D01*
X1517524Y2170480D01*
X1517685Y2171700D01*
X1507230D01*
Y2174240D01*
X1517685D01*
X1517524Y2175460D01*
X1516563Y2177781D01*
X1515034Y2179774D01*
X1514973Y2180712D01*
X1521460Y2187200D01*
Y2199640D01*
X1537970Y2216150D01*
X1547646Y2213386D01*
X1553698Y2219438D01*
X1554773Y2218762D01*
D02*
G37*
G36*
X1397000Y2204996D02*
X1397730D01*
X1399959Y2205290D01*
X1402037Y2206150D01*
X1403821Y2207519D01*
X1405190Y2209303D01*
X1406050Y2211381D01*
X1406344Y2213610D01*
X1450340D01*
X1451610Y2212340D01*
Y2166620D01*
X1341489D01*
X1340960Y2167309D01*
Y2167690D01*
X1328420D01*
Y2170230D01*
X1340960D01*
Y2170611D01*
X1340105Y2173800D01*
X1338997Y2175721D01*
X1388140Y2207135D01*
X1389423Y2206150D01*
X1391501Y2205290D01*
X1393730Y2204996D01*
X1394460D01*
Y2213610D01*
X1397000D01*
Y2204996D01*
D02*
G37*
G36*
X669290Y2176780D02*
X669358D01*
X671942Y2177472D01*
X674258Y2178810D01*
X675204Y2179756D01*
X695960Y2159000D01*
Y2041770D01*
X694507D01*
X691699Y2041018D01*
X689181Y2039564D01*
X687126Y2037509D01*
X685672Y2034991D01*
X684920Y2032183D01*
Y2032000D01*
X695960D01*
Y2029460D01*
X684920D01*
Y2029277D01*
X685672Y2026469D01*
X687126Y2023951D01*
X689181Y2021896D01*
X691699Y2020442D01*
X694507Y2019690D01*
X695960D01*
Y1965960D01*
X694622D01*
X692038Y1965268D01*
X689722Y1963930D01*
X687830Y1962038D01*
X686492Y1959722D01*
X685800Y1957138D01*
Y1955800D01*
X655320D01*
X524510Y2086610D01*
X624840Y2186940D01*
X657860D01*
Y2185602D01*
X658552Y2183018D01*
X659890Y2180702D01*
X661782Y2178810D01*
X664098Y2177472D01*
X666682Y2176780D01*
X666750D01*
Y2186940D01*
X669290D01*
Y2176780D01*
D02*
G37*
G36*
X510886Y2208184D02*
X510803Y2206916D01*
X509870Y2206200D01*
X507539Y2203163D01*
X506074Y2199626D01*
X505742Y2197100D01*
X523240D01*
Y2194560D01*
X505742D01*
X506074Y2192034D01*
X507539Y2188497D01*
X509870Y2185460D01*
X511522Y2184192D01*
X511605Y2182925D01*
X474955Y2146275D01*
X411973Y2209257D01*
X412459Y2210430D01*
X508640D01*
X510886Y2208184D01*
D02*
G37*
G36*
X384270Y2131140D02*
X379270Y2136140D01*
X384270Y2141140D01*
Y2131140D01*
D02*
G37*
G36*
X1145540Y2177143D02*
Y2188381D01*
X1146764Y2188721D01*
X1189181Y2118398D01*
X1188797Y2117130D01*
X1187819Y2116721D01*
X1187757Y2116783D01*
X1187635Y2116234D01*
X1186701Y2115299D01*
X1113790Y2188210D01*
Y2220388D01*
X1115001Y2220770D01*
X1145540Y2177143D01*
D02*
G37*
G36*
X1505967Y2098177D02*
X1490590Y2082800D01*
X1488931D01*
X1489417Y2081627D01*
X1468097Y2060307D01*
X1466930Y2061474D01*
X1464070Y2063125D01*
X1460881Y2063980D01*
X1460500D01*
Y2051440D01*
X1459230D01*
Y2050170D01*
X1446690D01*
Y2049789D01*
X1447545Y2046600D01*
X1449196Y2043740D01*
X1450363Y2042573D01*
X1443600Y2035810D01*
X1337772D01*
X1337444Y2038300D01*
X1336483Y2040621D01*
X1334954Y2042614D01*
X1332961Y2044143D01*
X1330640Y2045104D01*
X1328420Y2045397D01*
Y2035810D01*
X1325880D01*
Y2045397D01*
X1323660Y2045104D01*
X1321339Y2044143D01*
X1319346Y2042614D01*
X1317817Y2040621D01*
X1316856Y2038300D01*
X1316528Y2035810D01*
X1268730D01*
X1222913Y2081627D01*
X1223399Y2082800D01*
X1245090D01*
X1245053Y2084070D01*
X1505447Y2099335D01*
X1505967Y2098177D01*
D02*
G37*
G36*
X949960Y2044700D02*
X838200Y1932940D01*
Y1925695D01*
X836934Y1925594D01*
X816610Y2052320D01*
X829310Y2065020D01*
X929640D01*
X949960Y2044700D01*
D02*
G37*
G36*
X372110Y2081530D02*
X453390Y2000250D01*
Y1912620D01*
X381000Y1840230D01*
Y1838960D01*
X307340D01*
X302446Y1843853D01*
X303474Y1844881D01*
X304928Y1847399D01*
X305680Y1850207D01*
Y1850390D01*
X294640D01*
Y1852930D01*
X305680D01*
Y1853113D01*
X304928Y1855921D01*
X303474Y1858439D01*
X302446Y1859467D01*
X320040Y1877060D01*
Y2080380D01*
X327540D01*
Y2085880D01*
X328490Y2086723D01*
X372110Y2081530D01*
D02*
G37*
G36*
X964670Y1838960D02*
X975360D01*
Y1836420D01*
X965320D01*
Y1827650D01*
X973107D01*
X992446Y1787290D01*
X991501Y1786322D01*
X989330Y1786608D01*
Y1769110D01*
Y1751612D01*
X991856Y1751944D01*
X994410Y1753002D01*
X995680Y1752154D01*
Y1748790D01*
X953770D01*
X942340Y1760220D01*
Y1833880D01*
X958850D01*
X964147Y1839177D01*
X964670Y1838960D01*
D02*
G37*
G36*
X848360Y1835150D02*
X922020D01*
Y1757680D01*
X916940Y1752600D01*
X915670Y1753870D01*
X883220D01*
Y1767840D01*
X868680D01*
Y1769110D01*
X867410D01*
Y1786650D01*
X854710D01*
Y1805940D01*
X831533Y1829117D01*
X831913Y1830533D01*
X833185Y1830874D01*
X835475Y1832196D01*
X837344Y1834065D01*
X838666Y1836355D01*
X839350Y1838908D01*
Y1838960D01*
X844550D01*
X848360Y1835150D01*
D02*
G37*
G36*
X1079500Y1755140D02*
X1074420Y1750060D01*
X1045210D01*
Y1751570D01*
X1053400D01*
Y1767840D01*
X1038860D01*
Y1770380D01*
X1053400D01*
Y1786650D01*
X1039100D01*
X999322Y1826428D01*
X999490Y1826786D01*
Y1837690D01*
X1000760D01*
Y1838960D01*
X1010800D01*
Y1839012D01*
X1010403Y1840492D01*
X1011176Y1841500D01*
X1079500D01*
Y1755140D01*
D02*
G37*
G36*
X793870Y1841500D02*
X803910D01*
Y1838960D01*
X793870D01*
Y1830190D01*
X800654D01*
X817813Y1788008D01*
X816991Y1786658D01*
X814084Y1786276D01*
X810547Y1784811D01*
X807510Y1782480D01*
X805179Y1779443D01*
X803714Y1775906D01*
X803214Y1772110D01*
Y1770380D01*
X817880D01*
Y1767840D01*
X803214D01*
Y1766110D01*
X803714Y1762314D01*
X805179Y1758777D01*
X807510Y1755740D01*
X809360Y1754320D01*
X809443Y1753053D01*
X805180Y1748790D01*
X706120D01*
X701040Y1753870D01*
Y1817370D01*
X727710Y1844040D01*
X793870D01*
Y1841500D01*
D02*
G37*
%LPC*%
G36*
X363930Y2270760D02*
X352552D01*
Y2262030D01*
X352983Y2258756D01*
X354246Y2255706D01*
X356256Y2253086D01*
X357466Y2252158D01*
D01*
X358876Y2251076D01*
X361926Y2249813D01*
X363930Y2249549D01*
Y2270760D01*
D02*
G37*
G36*
X1517685Y2273300D02*
X1508500D01*
Y2264983D01*
X1510720Y2265276D01*
X1513041Y2266237D01*
X1515034Y2267766D01*
X1516563Y2269759D01*
X1517524Y2272080D01*
X1517685Y2273300D01*
D02*
G37*
G36*
X1505960D02*
X1496775D01*
X1496936Y2272080D01*
X1497897Y2269759D01*
X1499426Y2267766D01*
X1501419Y2266237D01*
X1503740Y2265276D01*
X1505960Y2264983D01*
Y2273300D01*
D02*
G37*
G36*
X1397730Y2247624D02*
X1397000D01*
Y2241239D01*
Y2240280D01*
D01*
X1406176D01*
X1406050Y2241239D01*
X1405662Y2242177D01*
X1405391Y2242830D01*
X1405190Y2243317D01*
X1403821Y2245101D01*
X1403453Y2245383D01*
X1402037Y2246470D01*
X1399959Y2247330D01*
X1397730Y2247624D01*
D02*
G37*
G36*
X1394460D02*
X1393730D01*
X1392690Y2247487D01*
X1391501Y2247330D01*
X1389423Y2246470D01*
X1387639Y2245101D01*
X1386270Y2243317D01*
X1386069Y2242830D01*
X1385410Y2241239D01*
X1385284Y2240280D01*
D01*
X1394460D01*
D01*
Y2247624D01*
D02*
G37*
G36*
X1457960Y2063980D02*
X1457579D01*
X1454390Y2063125D01*
X1451530Y2061474D01*
X1449196Y2059140D01*
X1447545Y2056280D01*
X1446690Y2053091D01*
Y2052710D01*
X1457960D01*
Y2063980D01*
D02*
G37*
G36*
X348161Y2081370D02*
X347780D01*
Y2070100D01*
X359050D01*
Y2070481D01*
X358195Y2073670D01*
X356544Y2076530D01*
X354210Y2078864D01*
X351350Y2080515D01*
X348161Y2081370D01*
D02*
G37*
G36*
X345240D02*
X344859D01*
X341670Y2080515D01*
X338810Y2078864D01*
X336475Y2076530D01*
X334825Y2073670D01*
X333970Y2070481D01*
Y2070100D01*
X345240D01*
Y2081370D01*
D02*
G37*
G36*
X359050Y2067560D02*
X347780D01*
Y2056290D01*
X348161D01*
X351350Y2057145D01*
X354210Y2058795D01*
X356544Y2061130D01*
X358195Y2063990D01*
X359050Y2067179D01*
Y2067560D01*
D02*
G37*
G36*
X345240D02*
X333970D01*
Y2067179D01*
X334825Y2063990D01*
X336475Y2061130D01*
X338810Y2058795D01*
X341670Y2057145D01*
X344859Y2056290D01*
X345240D01*
Y2067560D01*
D02*
G37*
G36*
X346390Y2045650D02*
X341950D01*
X337595Y2044784D01*
X333493Y2043085D01*
X329802Y2040618D01*
X326662Y2037478D01*
X324195Y2033787D01*
X322496Y2029685D01*
X321630Y2025330D01*
Y2020890D01*
X322496Y2016535D01*
X324195Y2012433D01*
X326662Y2008742D01*
X329802Y2005602D01*
X333493Y2003135D01*
X337595Y2001436D01*
X341950Y2000570D01*
X346390D01*
X350745Y2001436D01*
X354847Y2003135D01*
X358538Y2005602D01*
X361678Y2008742D01*
X364145Y2012433D01*
X365844Y2016535D01*
X366710Y2020890D01*
Y2025330D01*
X365844Y2029685D01*
X364145Y2033787D01*
X361678Y2037478D01*
X358538Y2040618D01*
X354847Y2043085D01*
X350745Y2044784D01*
X346390Y2045650D01*
D02*
G37*
G36*
X986790Y1786608D02*
X984264Y1786276D01*
X980727Y1784811D01*
X977690Y1782480D01*
X975359Y1779443D01*
X973894Y1775906D01*
X973394Y1772110D01*
Y1770380D01*
X986790D01*
Y1786608D01*
D02*
G37*
G36*
Y1767840D02*
X973394D01*
Y1766110D01*
X973894Y1762314D01*
X975359Y1758777D01*
X977690Y1755740D01*
X980727Y1753409D01*
X984264Y1751944D01*
X986790Y1751612D01*
Y1767840D01*
D02*
G37*
G36*
X883220Y1786650D02*
X869950D01*
Y1770380D01*
X883220D01*
Y1786650D01*
D02*
G37*
G36*
X1010800Y1836420D02*
X1002030D01*
Y1827650D01*
X1002082D01*
X1004635Y1828334D01*
X1006925Y1829656D01*
X1008794Y1831525D01*
X1010116Y1833815D01*
X1010800Y1836368D01*
Y1836420D01*
D02*
G37*
%LPD*%
D10*
X360680Y2161540D02*
X406400D01*
X317500Y2141220D02*
X340360D01*
X360680Y2161540D01*
X406400D02*
X436880Y2131060D01*
X797560Y2374900D02*
Y2390140D01*
X816610Y2409190D02*
X946150D01*
X797560Y2390140D02*
X816610Y2409190D01*
X762000Y2377798D02*
X790297Y2349500D01*
X745490Y2438400D02*
X762000Y2421890D01*
Y2377798D02*
Y2421890D01*
X1054100Y2123440D02*
X1115060D01*
X1181100Y2057400D02*
X1193800D01*
X1115060Y2123440D02*
X1181100Y2057400D01*
X1169670Y2032000D02*
X1193800D01*
X1054100Y2098040D02*
X1103630D01*
X1169670Y2032000D01*
X396200Y2225030D02*
X401200D01*
X406200D01*
X317500Y2180590D02*
X361758Y2224848D01*
X391200Y2225030D02*
X396200D01*
X386200D02*
X391200D01*
X1051560Y2095500D02*
X1054100Y2098040D01*
X1051560Y2120900D02*
X1054100Y2123440D01*
X1075690Y2044700D02*
X1113790Y2006600D01*
X1051560Y2044700D02*
X1075690D01*
X1113790Y1978660D02*
Y2006600D01*
X1088390Y1978660D02*
Y1993900D01*
X1051560Y2019300D02*
X1062990D01*
X1088390Y1993900D01*
X665480Y2306431D02*
Y2313093D01*
Y2306431D02*
X698611Y2273300D01*
X797560D01*
X625839Y2485390D02*
X1341120D01*
X614680Y2474231D02*
X625839Y2485390D01*
X614680Y2438400D02*
Y2474231D01*
X1369060Y2385060D02*
X1387839Y2366281D01*
X1365250Y2327910D02*
X1387839Y2350499D01*
Y2366281D01*
X1323340Y2385060D02*
X1369060D01*
X1291590Y2327910D02*
X1365250D01*
X1290320Y2461260D02*
X1341120Y2410460D01*
X1231900Y2461260D02*
X1290320D01*
X1219200Y2448560D02*
X1231900Y2461260D01*
X999490Y2435860D02*
X1111250D01*
X1150620Y2440940D02*
X1169670Y2459990D01*
X1116330Y2440940D02*
X1150620D01*
X1169670Y2459990D02*
X1207770D01*
X1111250Y2435860D02*
X1116330Y2440940D01*
X1181100Y2410460D02*
X1193800Y2423160D01*
Y2438400D01*
X1069340Y2410460D02*
X1181100D01*
X988060Y1769110D02*
Y1770771D01*
X974965Y1773057D02*
X985773D01*
X988060Y1770771D01*
X962277Y1824607D02*
X975360Y1837690D01*
X962277Y1785744D02*
Y1824607D01*
Y1785744D02*
X974965Y1773057D01*
X1040130Y1770380D02*
Y1798320D01*
X1038860Y1769110D02*
X1040130Y1770380D01*
X1000760Y1837690D02*
X1040130Y1798320D01*
X868680Y1769110D02*
X869950Y1770380D01*
Y1799590D01*
X829310Y1840230D02*
X869950Y1799590D01*
X783590Y1790429D02*
X800962Y1773057D01*
X783590Y1790429D02*
Y1819910D01*
X817880Y1769110D02*
Y1770771D01*
X815593Y1773057D02*
X817880Y1770771D01*
X800962Y1773057D02*
X815593D01*
X783590Y1819910D02*
X803910Y1840230D01*
X1051560Y2070100D02*
X1093470D01*
X1139190Y1978660D02*
Y2024380D01*
X1093470Y2070100D02*
X1139190Y2024380D01*
X1381760Y1917900D02*
Y1918157D01*
X1507230Y2172970D02*
X1546860Y2212600D01*
Y2474231D01*
X1535701Y2485390D02*
X1546860Y2474231D01*
X1341120Y2485390D02*
X1535701D01*
X1016000Y2186940D02*
X1017270Y2188210D01*
X982980Y2153920D02*
X1016000Y2186940D01*
X1017270Y2259330D02*
Y2330450D01*
Y2256790D02*
Y2259330D01*
X982980Y2028190D02*
Y2153920D01*
X1017270Y2330450D02*
X1036320Y2349500D01*
X1051560D01*
X981710Y2245360D02*
X1004570Y2222500D01*
X981710Y2245360D02*
Y2363741D01*
X1004570Y2222500D02*
X1051560D01*
X992869Y2374900D02*
X1051560D01*
X1051560Y2222500D02*
X1113790D01*
X981710Y2363741D02*
X992869Y2374900D01*
X958242Y2459990D02*
X1043332Y2374900D01*
X1051560Y2374900D02*
X1051560Y2374900D01*
X871220Y1916430D02*
X982980Y2028190D01*
X871220Y1863090D02*
Y1916430D01*
X1040130Y2146300D02*
X1051560D01*
X1017270Y2123440D02*
X1040130Y2146300D01*
X1017270Y2015490D02*
Y2123440D01*
X896620Y1894840D02*
X1017270Y2015490D01*
X896620Y1863090D02*
Y1894840D01*
X922020Y1867053D02*
X1048867Y1993900D01*
X1051560D01*
X922020Y1863090D02*
Y1867053D01*
X1039930Y1943100D02*
X1051560D01*
X966270Y1869440D02*
X1039930Y1943100D01*
X1068088Y1869622D02*
X1068270Y1869440D01*
X1051560Y1917700D02*
X1068088Y1901172D01*
Y1869622D02*
Y1901172D01*
X958242Y2459990D02*
X975360D01*
X999490Y2435860D01*
X1435100Y2241550D02*
X1468120Y2274570D01*
X1507230D01*
X1437458Y2362018D02*
X1459048D01*
X1346400Y2270960D02*
X1437458Y2362018D01*
X1328420Y2270960D02*
X1346400D01*
X1459048Y2362018D02*
X1459230Y2362200D01*
X1355090Y2435860D02*
X1385570D01*
X1459230Y2362200D01*
X1193800Y2082800D02*
X1221740D01*
X1145540Y2156460D02*
Y2190750D01*
Y2156460D02*
X1193800Y2108200D01*
X1051560Y2171700D02*
X1070153D01*
X1095553Y2146300D01*
X1084123Y2197100D02*
X1094283Y2186940D01*
X1051560Y2197100D02*
X1084123D01*
X1094283Y2186940D02*
X1094540D01*
X1095553Y2146300D02*
X1095810D01*
X1113790Y2222500D02*
X1145540Y2190750D01*
X1117600Y2306320D02*
X1140260D01*
X1051560Y2298700D02*
X1109980D01*
X1117600Y2306320D01*
X1103630Y2359660D02*
X1203960D01*
X1068070Y2324100D02*
X1103630Y2359660D01*
X1051560Y2324100D02*
X1068070D01*
X1051560Y2273300D02*
X1209240D01*
X1242260Y2306320D01*
X1250950Y2247900D02*
X1291590Y2288540D01*
X1051560Y2247900D02*
X1250950D01*
X1244600Y2423378D02*
X1308318Y2359660D01*
X1043332Y2374900D02*
X1051560D01*
X735017Y2459990D02*
X958242D01*
X1291590Y2288540D02*
Y2327910D01*
X1066800Y2410460D02*
X1069340D01*
X640080Y2438400D02*
Y2448831D01*
Y2375747D02*
Y2438400D01*
X653779Y2462530D02*
X695960D01*
X640080Y2448831D02*
X653779Y2462530D01*
X695960D02*
X720090Y2438400D01*
Y2445063D02*
X735017Y2459990D01*
X1341120Y2410460D02*
X1355090D01*
X1207770Y2459990D02*
X1219200Y2448560D01*
Y2438400D02*
Y2448560D01*
X1111250Y2385060D02*
X1234440D01*
X1291590Y2327910D01*
X1355090Y2435860D02*
Y2471420D01*
X1341120Y2485390D02*
X1355090Y2471420D01*
X1308318Y2359660D02*
X1355090D01*
X1270000Y2438400D02*
X1323340Y2385060D01*
X1244600Y2423378D02*
Y2438400D01*
X706120Y1875790D02*
X819421D01*
X696595Y1885315D02*
X706120Y1875790D01*
X830580Y1886949D02*
Y2026920D01*
X819421Y1875790D02*
X830580Y1886949D01*
X812800Y2044700D02*
X830580Y2026920D01*
X797560Y2044700D02*
X812800D01*
X638810Y1917700D02*
X797560D01*
X436880Y2119630D02*
Y2131060D01*
Y2119630D02*
X638810Y1917700D01*
X324663Y2090420D02*
X346253Y2068830D01*
X317500Y2090420D02*
X324663D01*
X346253Y2068830D02*
X346510D01*
X361758Y2224848D02*
X386018D01*
X317500Y2166620D02*
Y2180590D01*
X386018Y2224848D02*
X386200Y2225030D01*
X720090Y2438400D02*
Y2445063D01*
X289560Y2035810D02*
Y2104661D01*
X300719Y2115820D01*
X317500D01*
X289560Y2035810D02*
X294640Y2030730D01*
X744220Y1968500D02*
X797560D01*
X744220Y1993900D02*
X797560D01*
X776605Y2019300D02*
X797560D01*
X744220Y2030730D02*
X765175D01*
X776605Y2019300D01*
X744220Y2056130D02*
X763905D01*
X777875Y2070100D01*
X797560D01*
X651239Y2223770D02*
X708660D01*
X732790Y2247900D01*
X797560D01*
X640080Y2234929D02*
Y2250440D01*
Y2234929D02*
X651239Y2223770D01*
X745490Y2222500D02*
X797560D01*
X745490Y2095500D02*
X797560D01*
X745490Y2120900D02*
X797560D01*
X745490Y2146300D02*
X797560D01*
X745490Y2171700D02*
X797560D01*
X745490Y2197100D02*
X797560D01*
X701978Y2356182D02*
X759460Y2298700D01*
X797560D01*
X678382Y2356182D02*
X701978D01*
X665480Y2369084D02*
X678382Y2356182D01*
X665480Y2369084D02*
Y2375747D01*
Y2438400D02*
X779780Y2324100D01*
X797560D01*
X640080Y2294467D02*
Y2313093D01*
X665480Y2250440D02*
Y2269067D01*
X640080Y2294467D02*
X665480Y2269067D01*
X790297Y2349500D02*
X797560D01*
X640080Y2313093D02*
Y2375747D01*
X614680Y2250440D02*
Y2313093D01*
Y2375747D01*
Y2438400D01*
D11*
X574040Y2397760D02*
X614680Y2438400D01*
X474980Y2291890D02*
Y2377440D01*
X290830Y2434590D02*
X322580Y2466340D01*
X290830Y2157730D02*
X307340Y2141220D01*
X290830Y2157730D02*
Y2434590D01*
X586740Y2466340D02*
X614680Y2438400D01*
X322580Y2466340D02*
X586740D01*
X307340Y2141220D02*
X317500D01*
X474980Y2291890D02*
X520240Y2246630D01*
X523240D01*
D12*
X495300Y2397760D02*
X574040D01*
X474980Y2377440D02*
X495300Y2397760D01*
D13*
X396200Y2225030D02*
X425400Y2195830D01*
X360595Y2277425D02*
X365200Y2272820D01*
Y2271240D02*
X396200Y2240240D01*
Y2225030D02*
Y2240240D01*
X365200Y2271240D02*
Y2272030D01*
X1327150Y2137410D02*
X1445260D01*
X1459230Y2123440D01*
X1507230Y2274570D02*
Y2386200D01*
X1459230Y2434200D02*
X1507230Y2386200D01*
X1459230Y2051440D02*
X1507230Y2099440D01*
Y2172970D01*
X1327150Y2035810D02*
X1443600D01*
X1221740Y2082800D02*
X1268730Y2035810D01*
X1327150D01*
X1443600D02*
X1459230Y2051440D01*
X695960Y1955800D02*
Y2030730D01*
X474955Y2136165D02*
X524510Y2086610D01*
X474955Y2136165D02*
Y2146275D01*
X524510Y2086610D02*
X640080D01*
X425400Y2195830D02*
X474955Y2146275D01*
X364290Y2068830D02*
X392430Y2040690D01*
X346510Y2068830D02*
X364290D01*
X640080Y2086610D02*
X695960Y2030730D01*
X668020Y2186940D02*
X695960Y2159000D01*
Y2030730D02*
Y2159000D01*
X294640Y1851660D02*
X392430Y1949450D01*
Y2040690D01*
X529590Y2145030D02*
X562610Y2178050D01*
X523240Y2145030D02*
X529590D01*
X425400Y2195830D02*
X523240D01*
X562610Y2178050D02*
Y2264410D01*
X521970Y2305050D02*
Y2373630D01*
Y2305050D02*
X562610Y2264410D01*
X329400Y2423630D02*
X521970D01*
X365200Y2272030D02*
Y2272820D01*
X322580Y2314650D02*
Y2366010D01*
Y2314650D02*
X359805Y2277425D01*
X360595D01*
X322580Y2416810D02*
X332740D01*
X420595Y2276635D02*
Y2328955D01*
X332740Y2416810D02*
X420595Y2328955D01*
X322580Y2416810D02*
X329400Y2423630D01*
X420595Y2276635D02*
X425200Y2272030D01*
D14*
X1407160Y1758950D02*
X1407675Y1758435D01*
X1412797D02*
X1414822Y1756410D01*
X1537407D01*
X1545590Y1764593D01*
Y1818440D01*
X1407675Y1758435D02*
X1412797D01*
X1381957Y1766767D02*
X1393190Y1778000D01*
X1473200D02*
X1489710Y1794510D01*
X1393190Y1778000D02*
X1473200D01*
X1489710Y1794510D02*
Y1818440D01*
X1367790Y1795780D02*
X1423670D01*
X1356557Y1784547D02*
X1367790Y1795780D01*
X1356557Y1759147D02*
Y1784547D01*
X1354057Y1815067D02*
X1380927D01*
X1330960Y1791970D02*
X1354057Y1815067D01*
X1330960Y1758950D02*
Y1791970D01*
X1325047Y1818876D02*
X1325880Y1819710D01*
X1310876Y1818876D02*
X1325047D01*
X1299210Y1765579D02*
Y1807210D01*
X1310876Y1818876D01*
X1305560Y1758950D02*
Y1759229D01*
X1299210Y1765579D02*
X1305560Y1759229D01*
X1271270Y1816808D02*
X1275080Y1812998D01*
Y1764309D02*
Y1812998D01*
Y1764309D02*
X1280160Y1759229D01*
Y1758950D02*
Y1759229D01*
X1271270Y1816808D02*
Y1818440D01*
X1216423Y1806176D02*
Y1819946D01*
X1254563Y1759147D02*
Y1768037D01*
X1215390Y1820980D02*
X1216423Y1819946D01*
Y1806176D02*
X1254563Y1768037D01*
Y1759147D02*
X1254760Y1758950D01*
X1229163Y1759147D02*
X1229360Y1758950D01*
X1229163Y1759147D02*
Y1764227D01*
X1212850Y1780540D02*
X1229163Y1764227D01*
X1178560Y1780540D02*
X1212850D01*
X1160780Y1798320D02*
X1178560Y1780540D01*
X1160780Y1798320D02*
Y1820980D01*
X1109980Y1786890D02*
Y1823520D01*
X1137920Y1758950D02*
X1203960D01*
X1109980Y1786890D02*
X1137920Y1758950D01*
X1381760D02*
X1381957Y1759147D01*
Y1766767D01*
X1437756Y1816016D02*
X1438910Y1817170D01*
X1437756Y1809866D02*
Y1816016D01*
X1423670Y1795780D02*
X1437756Y1809866D01*
X1356360Y1758950D02*
X1356557Y1759147D01*
X1380927Y1815067D02*
X1381760Y1815900D01*
Y1758950D02*
Y1759229D01*
X1230630Y1977390D02*
Y1991081D01*
X1160978Y1923179D02*
X1176419D01*
X1160780Y1922980D02*
X1160978Y1923179D01*
X1176419D02*
X1230630Y1977390D01*
X1232100Y1922980D02*
X1257300Y1948180D01*
Y1992351D01*
X1215390Y1922980D02*
X1232100D01*
X1257300Y1992351D02*
X1259840Y1994891D01*
Y1995170D01*
X1387037Y1983543D02*
Y1994973D01*
X1412297Y1958283D02*
X1451867D01*
X1386840Y1995170D02*
X1387037Y1994973D01*
Y1983543D02*
X1412297Y1958283D01*
X1487170Y1995170D02*
X1544436Y1937904D01*
Y1921594D02*
X1545590Y1920440D01*
X1544436Y1921594D02*
Y1937904D01*
X1412240Y1995170D02*
X1487170D01*
X1451867Y1958283D02*
X1489710Y1920440D01*
X1361440Y1972310D02*
Y1995170D01*
X1414580Y1919170D02*
X1438910D01*
X1361440Y1972310D02*
X1414580Y1919170D01*
X1336040Y1963620D02*
Y1995170D01*
Y1963620D02*
X1381760Y1917900D01*
X1325880Y1921710D02*
Y1923342D01*
X1310640Y1938582D02*
Y1995170D01*
Y1938582D02*
X1325880Y1923342D01*
X1271270Y1920440D02*
Y1922072D01*
X1285240Y1936042D01*
Y1995170D01*
X1230630Y1991081D02*
X1234440Y1994891D01*
X1162050Y1963983D02*
Y1981200D01*
X1176020Y1995170D01*
X1234440Y1994891D02*
Y1995170D01*
X1153867Y1955800D02*
X1162050Y1963983D01*
X1122680Y1955800D02*
X1153867D01*
X1111134Y1926674D02*
Y1944254D01*
X1122680Y1955800D01*
X1109980Y1925520D02*
X1111134Y1926674D01*
X1176020Y1995170D02*
X1209040D01*
X429260Y2068830D02*
X448510D01*
X394970Y2103120D02*
Y2136140D01*
Y2103120D02*
X429260Y2068830D01*
X317779Y2115820D02*
X349280D01*
X369570Y2136110D01*
Y2136140D01*
D15*
X1256000Y2125980D02*
X1259840D01*
X1255920Y2126060D02*
X1256000Y2125980D01*
X1259840Y2138680D02*
X1323841D01*
X1325111Y2137410D02*
X1327150D01*
X1241033Y2126060D02*
X1255920D01*
X1323841Y2138680D02*
X1325111Y2137410D01*
X1328420Y2168960D02*
X1330303Y2170843D01*
X1393730Y2213610D02*
X1395730D01*
X1350963Y2170843D02*
X1393730Y2213610D01*
X1330303Y2170843D02*
X1350963D01*
X1262410Y2199640D02*
X1301780Y2239010D01*
X1395730D01*
X1258570Y2199640D02*
X1262410D01*
X1395730Y2239010D02*
X1432560D01*
X1435100Y2241550D01*
X1254730Y2174240D02*
X1258570D01*
X1254650Y2170320D02*
Y2174160D01*
X1153000Y2163920D02*
X1248250D01*
X1254650Y2174160D02*
X1254730Y2174240D01*
X1248250Y2163920D02*
X1254650Y2170320D01*
X1145540Y2156460D02*
X1153000Y2163920D01*
X1256000Y2113280D02*
X1259840D01*
X1193800Y2108200D02*
X1250920D01*
X1256000Y2113280D01*
X1222675Y2144417D02*
X1241033Y2126060D01*
X1197810Y2146300D02*
X1199693Y2144417D01*
X1222675D01*
X1196540Y2186940D02*
X1258570D01*
D16*
X975360Y1837690D02*
D03*
X803910Y1840230D02*
D03*
X1407160Y1758950D02*
D03*
X1209040Y1995170D02*
D03*
X665480Y2438400D02*
D03*
Y2250440D02*
D03*
X745490Y2438400D02*
D03*
X690880Y2313093D02*
D03*
Y2375747D02*
D03*
X1139190Y1978660D02*
D03*
X1270000Y2438400D02*
D03*
X922020Y1863090D02*
D03*
D17*
X1000760Y1837690D02*
D03*
X829310Y1840230D02*
D03*
X1381760Y1758950D02*
D03*
X1203960D02*
D03*
X1229360D02*
D03*
X1254760D02*
D03*
X1280160D02*
D03*
X1305560D02*
D03*
X1330960D02*
D03*
X1356360D02*
D03*
X1234440Y1995170D02*
D03*
X1412240D02*
D03*
X1386840D02*
D03*
X1361440D02*
D03*
X1336040D02*
D03*
X1310640D02*
D03*
X1285240D02*
D03*
X1259840D02*
D03*
X1193800Y2057400D02*
D03*
Y2082800D02*
D03*
Y2108200D02*
D03*
X614680Y2438400D02*
D03*
X640080D02*
D03*
X614680Y2250440D02*
D03*
X640080D02*
D03*
X720090Y2438400D02*
D03*
X614680Y2313093D02*
D03*
X640080D02*
D03*
X665480D02*
D03*
X614680Y2375747D02*
D03*
X640080D02*
D03*
X665480D02*
D03*
X745490Y2120900D02*
D03*
Y2146300D02*
D03*
Y2171700D02*
D03*
Y2222500D02*
D03*
Y2197100D02*
D03*
X1113790Y1978660D02*
D03*
X1088390D02*
D03*
X1193800Y2438400D02*
D03*
X1219200D02*
D03*
X1244600D02*
D03*
X1355090Y2435860D02*
D03*
Y2410460D02*
D03*
Y2385060D02*
D03*
X744220Y1993900D02*
D03*
Y2056130D02*
D03*
X1111250Y2435860D02*
D03*
Y2410460D02*
D03*
Y2385060D02*
D03*
X896620Y1863090D02*
D03*
X871220D02*
D03*
X317500Y2166620D02*
D03*
Y2141220D02*
D03*
Y2115820D02*
D03*
X406200Y2225030D02*
D03*
X386200D02*
D03*
X365200Y2282030D02*
D03*
Y2262030D02*
D03*
X391200Y2225030D02*
D03*
X401200D02*
D03*
X365200Y2267030D02*
D03*
Y2277030D02*
D03*
D18*
X868680Y1769110D02*
D03*
X1038860D02*
D03*
D19*
X817880D02*
D03*
X988060D02*
D03*
D20*
X1381760Y1917900D02*
D03*
Y1815900D02*
D03*
X1160780Y1922980D02*
D03*
Y1820980D02*
D03*
X1109980Y1925520D02*
D03*
Y1823520D02*
D03*
X1438910Y1919170D02*
D03*
Y1817170D02*
D03*
X1489710Y1920440D02*
D03*
Y1818440D02*
D03*
X1545590Y1920440D02*
D03*
Y1818440D02*
D03*
X1215390Y1922980D02*
D03*
Y1820980D02*
D03*
X1271270Y1920440D02*
D03*
Y1818440D02*
D03*
X1325880Y1921710D02*
D03*
Y1819710D02*
D03*
X1459230Y2051440D02*
D03*
Y2123440D02*
D03*
X1328420Y2270960D02*
D03*
Y2168960D02*
D03*
X1459230Y2434200D02*
D03*
Y2362200D02*
D03*
X1242260Y2306320D02*
D03*
X1140260D02*
D03*
X1197810Y2146300D02*
D03*
X1095810D02*
D03*
X1196540Y2186940D02*
D03*
X1094540D02*
D03*
X1068270Y1869440D02*
D03*
X966270D02*
D03*
X448510Y2068830D02*
D03*
X346510D02*
D03*
D21*
X1017270Y2259330D02*
D03*
X1016000Y2186940D02*
D03*
X1276459Y2391519D02*
D03*
X1203960Y2358390D02*
D03*
X1069340Y2410460D02*
D03*
X946150Y2409190D02*
D03*
X695960Y1955800D02*
D03*
X696595Y1885315D02*
D03*
X668020Y2186940D02*
D03*
D22*
X1193800Y2032000D02*
D03*
X745490Y2095500D02*
D03*
X1355090Y2359660D02*
D03*
X744220Y1968500D02*
D03*
Y2030730D02*
D03*
X1111250Y2359660D02*
D03*
X317500Y2090420D02*
D03*
D23*
X1507230Y2172970D02*
D03*
Y2274570D02*
D03*
X1327150Y2035810D02*
D03*
Y2137410D02*
D03*
D24*
X797560Y2374900D02*
D03*
D25*
Y2349500D02*
D03*
Y1917700D02*
D03*
Y2324100D02*
D03*
Y2298700D02*
D03*
Y2273300D02*
D03*
Y2247900D02*
D03*
Y2222500D02*
D03*
Y2197100D02*
D03*
Y2171700D02*
D03*
Y2146300D02*
D03*
Y2120900D02*
D03*
Y2095500D02*
D03*
Y2070100D02*
D03*
Y2044700D02*
D03*
Y2019300D02*
D03*
Y1993900D02*
D03*
Y1968500D02*
D03*
Y1943100D02*
D03*
X1051560Y2374900D02*
D03*
Y2349500D02*
D03*
Y2324100D02*
D03*
Y2298700D02*
D03*
Y2273300D02*
D03*
Y2247900D02*
D03*
Y2222500D02*
D03*
Y2197100D02*
D03*
Y2171700D02*
D03*
Y2146300D02*
D03*
Y2120900D02*
D03*
Y2095500D02*
D03*
Y2070100D02*
D03*
Y2044700D02*
D03*
Y2019300D02*
D03*
Y1993900D02*
D03*
Y1968500D02*
D03*
Y1943100D02*
D03*
Y1917700D02*
D03*
D26*
X1395730Y2239010D02*
D03*
Y2213610D02*
D03*
D27*
X1259840Y2125980D02*
D03*
Y2113280D02*
D03*
Y2138680D02*
D03*
X1258570Y2186940D02*
D03*
Y2174240D02*
D03*
Y2199640D02*
D03*
D28*
X523240Y2246630D02*
D03*
Y2195830D02*
D03*
X322580Y2416810D02*
D03*
D29*
X523240Y2145030D02*
D03*
X322580Y2366010D02*
D03*
D30*
X695960Y1851660D02*
D03*
X294640Y2030730D02*
D03*
X695960D02*
D03*
X294640Y1851660D02*
D03*
D31*
X646430Y1860550D02*
D03*
X344170Y2023110D02*
D03*
D32*
X521970Y2423630D02*
D03*
Y2373630D02*
D03*
D33*
X369570Y2136140D02*
D03*
X394970D02*
D03*
D34*
X320200Y2272030D02*
D03*
D35*
X425200D02*
D03*
D36*
X365200D02*
D03*
D37*
X396200Y2225030D02*
D03*
D38*
X425200Y2284530D02*
D03*
Y2259530D02*
D03*
Y2264030D02*
D03*
Y2268030D02*
D03*
Y2276030D02*
D03*
Y2280030D02*
D03*
M02*
